<svg
    xmlns="http://www.w3.org/2000/svg"
    viewBox="0 0 512 512"
    id="vector">
    <path
        id="path"
        d="M 264 408.784 L 232 408.784 C 223.2 408.784 216 415.976 216 424.784 L 216 496 C 216 504.8 223.2 512 232 512 L 264 512 L 264 408.784 Z"
        fill="#c56c4d"/>
    <path
        id="path_1"
        d="M 280 408.784 L 256 408.784 L 256 512 L 280 512 C 288.8 512 296 504.8 296 496 L 296 424.784 C 296 415.976 288.8 408.784 280 408.784 Z"
        fill="#b36345"/>
    <path
        id="path_2"
        d="M 437.376 400 L 376 296 L 384 296 C 384.056 296.008 384.12 296 384.16 296 C 393 296 400.16 288.832 400.16 280 C 400.16 275.968 398.672 272.296 396.224 269.488 L 320 160 L 336 160 C 336.056 160 336.12 160 336.16 160 C 345 160 352.16 152.832 352.16 144 C 352.16 140.144 350.792 136.592 348.512 133.832 L 269.568 7.512 C 266.64 2.84 261.512 0 256 0 C 250.488 0 245.36 2.84 242.432 7.512 L 162.432 135.512 C 159.352 140.448 159.192 146.672 162.008 151.752 C 164.824 156.832 170.176 160 176 160 L 192 160 L 114.688 271.128 C 111.416 276.032 111.112 282.344 113.888 287.552 C 116.68 292.752 122.104 296 128 296 L 136 296 L 74.624 400 C 71.4 404.912 71.12 411.2 73.92 416.376 C 76.712 421.544 82.12 424 88 424 L 424 424 C 429.88 424 435.288 421.544 438.08 416.376 C 440.872 411.2 440.6 404.912 437.376 400 Z"
        fill="#84bd5a"/>
    <path
        id="path_3"
        d="M 256 0 C 261.512 0 266.64 2.84 269.568 7.512 L 349.568 135.512 C 352.648 140.448 352.808 146.672 349.992 151.752 C 347.176 156.832 341.824 160 336 160 L 320 160 L 397.312 271.128 C 400.584 276.032 400.888 282.344 398.112 287.552 C 395.32 292.752 389.896 296 384 296 L 376 296 L 437.376 400 C 440.6 404.912 440.88 411.2 438.08 416.376 C 435.288 421.544 429.88 424 424 424 L 336 424 L 312 312 L 312 296 L 280 176 L 280 160 L 256 0 Z"
        fill="#73ae44"/>
    <path
        id="path_4"
        d="M 256 0 C 250.488 0 245.36 2.84 242.432 7.512 L 162.432 135.512 C 159.352 140.448 159.192 146.672 162.008 151.752 C 164.824 156.832 170.176 160 176 160 L 192 160 L 114.688 271.128 C 111.416 276.032 111.112 282.344 113.888 287.552 C 116.68 292.752 122.104 296 128 296 L 136 296 L 74.624 400 C 71.4 404.912 71.12 411.2 73.92 416.376 C 76.712 421.544 82.12 424 88 424 L 176 424 L 200 312 L 200 296 L 232 176 L 232 160 L 256 0 Z"
        fill="#90c660"/>
    <path
        id="path_5"
        d="M 280 176 L 331.136 176 L 320 160 L 280 160 Z"
        fill="#6fa14e"/>
    <path
        id="path_6"
        d="M 312 312 L 386.312 312 L 376 296 L 312 296 Z"
        fill="#6fa14e"/>
    <path
        id="path_7"
        d="M 280 176 L 180.864 176 L 192 160 L 280 160 Z"
        fill="#73ae44"/>
    <path
        id="path_8"
        d="M 312 312 L 125.688 312 L 136 296 L 312 296 Z"
        fill="#73ae44"/>
    <path
        id="path_9"
        d="M 216 424 L 256 424 L 256 440 L 216 440 L 216 424 Z"
        fill="#b86548"/>
    <path
        id="path_10"
        d="M 256 424 L 296 424 L 296 440 L 256 440 L 256 424 Z"
        fill="#a2593e"/>
    <path
        id="path_11"
        d="M 232 176 L 180.864 176 L 192 160 L 232 160 Z"
        fill="#84bd5a"/>
    <path
        id="path_12"
        d="M 200 312 L 125.688 312 L 136 296 L 200 296 Z"
        fill="#84bd5a"/>
</svg>
